<?xml version="1.0" encoding="utf-8"?>
<!-- Generator: Adobe Illustrator 16.0.3, SVG Export Plug-In . SVG Version: 6.00 Build 0)  -->
<!DOCTYPE svg PUBLIC "-//W3C//DTD SVG 1.1//EN" "http://www.w3.org/Graphics/SVG/1.1/DTD/svg11.dtd">
<svg version="1.1" xmlns="http://www.w3.org/2000/svg" xmlns:xlink="http://www.w3.org/1999/xlink" x="0px" y="0px" width="150px"
	 height="28px" viewBox="0 0 150 28" enable-background="new 0 0 150 28" xml:space="preserve">
<g id="Layer_1" display="none">
	<path display="inline" fill="#38BDF8" d="M15.458,4.553c-4.122,0-6.698,2.061-7.729,6.184c1.546-2.061,3.349-2.834,5.41-2.319
		c1.176,0.293,2.017,1.147,2.947,2.091c1.516,1.539,3.27,3.319,7.101,3.319c4.122,0,6.699-2.061,7.729-6.183
		c-1.546,2.061-3.349,2.834-5.41,2.319c-1.176-0.294-2.017-1.147-2.947-2.092C21.043,6.334,19.289,4.553,15.458,4.553z
		 M7.729,13.828c-4.122,0-6.698,2.061-7.729,6.184c1.546-2.062,3.349-2.834,5.41-2.318c1.176,0.293,2.017,1.146,2.947,2.091
		c1.516,1.538,3.27,3.319,7.101,3.319c4.122,0,6.698-2.062,7.729-6.184c-1.546,2.061-3.349,2.834-5.41,2.318
		c-1.176-0.293-2.017-1.146-2.947-2.092C13.314,15.609,11.561,13.828,7.729,13.828z"/>
	<path fill="#FFFFFF" d="M46.372,12.37h-2.698v5.221c0,1.393,0.914,1.37,2.698,1.284v2.109c-3.611,0.436-5.047-0.565-5.047-3.394
		V12.37h-2.001v-2.263h2.001V7.185l2.35-0.696v3.619h2.698V12.37z M56.655,10.107h2.35v10.877h-2.35v-1.566
		c-0.827,1.153-2.11,1.85-3.807,1.85c-2.959,0-5.417-2.502-5.417-5.722c0-3.242,2.458-5.722,5.417-5.722
		c1.697,0,2.98,0.696,3.807,1.827V10.107z M53.218,19.027c1.958,0,3.438-1.458,3.438-3.481s-1.479-3.481-3.438-3.481
		s-3.438,1.458-3.438,3.481S51.26,19.027,53.218,19.027z M62.921,8.475c-0.827,0-1.501-0.696-1.501-1.501
		c0-0.398,0.159-0.779,0.44-1.061c0.281-0.282,0.663-0.44,1.061-0.441c0.398,0.001,0.779,0.159,1.061,0.441
		c0.281,0.281,0.439,0.663,0.44,1.061C64.422,7.779,63.748,8.475,62.921,8.475z M61.746,20.984V10.107h2.35v10.877H61.746z
		 M66.815,20.984V5.103h2.35v15.881H66.815z M84.416,10.107h2.48L83.48,20.984h-2.307l-2.262-7.332l-2.285,7.332h-2.306
		l-3.416-10.877h2.48l2.11,7.506l2.285-7.506h2.241l2.262,7.506L84.416,10.107z M89.811,8.475c-0.826,0-1.5-0.696-1.5-1.501
		c0-0.398,0.158-0.779,0.439-1.061c0.281-0.282,0.663-0.44,1.061-0.441c0.398,0.001,0.779,0.159,1.062,0.441
		c0.28,0.281,0.439,0.663,0.44,1.061C91.313,7.779,90.638,8.475,89.811,8.475z M88.637,20.984V10.107h2.35v10.877H88.637z
		 M99.428,9.824c2.436,0,4.176,1.653,4.176,4.481v6.679h-2.35v-6.439c0-1.653-0.957-2.523-2.436-2.523
		c-1.545,0-2.764,0.914-2.764,3.133v5.83h-2.35V10.107h2.35v1.392C96.773,10.368,97.947,9.824,99.428,9.824z M114.743,5.756h2.35
		v15.229h-2.35v-1.566c-0.827,1.153-2.11,1.85-3.808,1.85c-2.959,0-5.417-2.502-5.417-5.722c0-3.242,2.458-5.722,5.417-5.722
		c1.697,0,2.98,0.696,3.808,1.827V5.756z M111.306,19.027c1.958,0,3.438-1.458,3.438-3.481s-1.479-3.481-3.438-3.481
		s-3.438,1.458-3.438,3.481S109.348,19.027,111.306,19.027z M124.969,21.268c-3.285,0-5.744-2.502-5.744-5.722
		c0-3.242,2.459-5.722,5.744-5.722c2.132,0,3.98,1.109,4.852,2.806l-2.023,1.175c-0.479-1.022-1.545-1.675-2.85-1.675
		c-1.915,0-3.373,1.458-3.373,3.416s1.458,3.415,3.373,3.415c1.305,0,2.371-0.674,2.893-1.675l2.023,1.153
		C128.949,20.158,127.101,21.268,124.969,21.268z M133.736,13.109c0,1.979,5.852,0.783,5.852,4.808c0,2.176-1.893,3.351-4.242,3.351
		c-2.176,0-3.742-0.979-4.438-2.545l2.022-1.176c0.349,0.979,1.219,1.566,2.415,1.566c1.045,0,1.85-0.348,1.85-1.218
		c0-1.937-5.853-0.849-5.853-4.743c0-2.045,1.763-3.329,3.981-3.329c1.783,0,3.264,0.827,4.024,2.262l-1.979,1.11
		c-0.392-0.849-1.153-1.24-2.045-1.24C134.476,11.956,133.736,12.326,133.736,13.109z M143.766,13.109
		c0,1.979,5.852,0.783,5.852,4.808c0,2.176-1.893,3.351-4.242,3.351c-2.176,0-3.742-0.979-4.438-2.545l2.023-1.176
		c0.348,0.979,1.218,1.566,2.414,1.566c1.045,0,1.85-0.348,1.85-1.218c0-1.937-5.853-0.849-5.853-4.743
		c0-2.045,1.763-3.329,3.981-3.329c1.783,0,3.264,0.827,4.025,2.262l-1.98,1.11c-0.392-0.849-1.152-1.24-2.045-1.24
		C144.505,11.956,143.766,12.326,143.766,13.109z"/>
</g>
<g id="Layer_2">
	<g>
		<path fill="#FFFFFF" d="M39.613,5.51h-3.245v2.156h3.135v1.21h-3.135V12h-1.265V4.3h4.51V5.51z"/>
		<path fill="#FFFFFF" d="M45.487,12l-0.543-1.551h-3.274L41.131,12h-1.375l2.794-7.7h1.518l2.783,7.7H45.487z M42.088,9.261h2.439
			l-1.217-3.476L42.088,9.261z M44.849,2.1l-1.166,1.485h-1.144l0.88-1.485H44.849z"/>
		<path fill="#FFFFFF" d="M51.031,12.143c-1.159,0-2.12-0.383-2.882-1.149c-0.763-0.767-1.144-1.714-1.144-2.844
			c0-1.129,0.381-2.077,1.144-2.843c0.763-0.767,1.724-1.149,2.882-1.149c0.696,0,1.34,0.165,1.93,0.495s1.051,0.777,1.381,1.342
			l-1.1,0.638c-0.206-0.381-0.504-0.684-0.896-0.907c-0.393-0.224-0.831-0.335-1.314-0.335c-0.821,0-1.487,0.26-1.997,0.781
			c-0.51,0.521-0.765,1.181-0.765,1.98s0.255,1.459,0.765,1.98c0.51,0.521,1.175,0.781,1.997,0.781c0.484,0,0.924-0.112,1.32-0.335
			s0.693-0.526,0.891-0.908l1.1,0.627c-0.323,0.565-0.779,1.014-1.37,1.348S51.735,12.143,51.031,12.143z"/>
		<path fill="#FFFFFF" d="M55.387,4.3h1.265V12h-1.265V4.3z"/>
		<path fill="#FFFFFF" d="M59.457,10.79h3.135V12h-4.4V4.3h1.265V10.79z"/>
	</g>
	<g>
		<path fill="#FFFFFF" d="M38.59,27.08c-1.279,0-2.365-0.291-3.258-0.874s-1.517-1.38-1.872-2.394l1.881-1.103
			c0.532,1.495,1.634,2.242,3.306,2.242c0.823,0,1.441-0.161,1.853-0.483s0.618-0.742,0.618-1.26c0-0.543-0.222-0.957-0.666-1.242
			c-0.444-0.283-1.23-0.596-2.359-0.938c-0.619-0.229-1.127-0.419-1.526-0.566c-0.399-0.148-0.816-0.371-1.253-0.67
			c-0.437-0.297-0.763-0.668-0.979-1.111s-0.323-0.962-0.323-1.558c0-1.179,0.418-2.112,1.254-2.803
			c0.836-0.69,1.843-1.035,3.021-1.035c1.064,0,1.995,0.26,2.793,0.779s1.412,1.235,1.843,2.147l-1.843,1.063
			c-0.558-1.24-1.489-1.861-2.793-1.861c-0.634,0-1.14,0.148-1.52,0.446s-0.57,0.7-0.57,1.206c0,0.484,0.194,0.866,0.583,1.145
			c0.388,0.279,1.092,0.574,2.112,0.885c0.497,0.188,0.861,0.324,1.092,0.411s0.562,0.212,0.995,0.374
			c0.432,0.163,0.754,0.334,0.968,0.514c0.213,0.18,0.442,0.404,0.688,0.674s0.418,0.578,0.519,0.924
			c0.1,0.346,0.151,0.738,0.151,1.174c0,1.203-0.434,2.156-1.302,2.859S39.997,27.08,38.59,27.08z"/>
		<path fill="#FFFFFF" d="M56.213,25.076c-1.336,1.336-2.967,2.004-4.893,2.004c-1.926,0-3.556-0.668-4.893-2.004
			c-1.336-1.337-2.004-2.968-2.004-4.893c0-1.926,0.668-3.557,2.004-4.893c1.336-1.337,2.967-2.005,4.893-2.005
			c1.925,0,3.556,0.668,4.893,2.005c1.336,1.336,2.004,2.967,2.004,4.893C58.217,22.108,57.549,23.739,56.213,25.076z
			 M47.967,23.594c0.905,0.906,2.023,1.358,3.354,1.358s2.448-0.452,3.354-1.358c0.905-0.906,1.358-2.043,1.358-3.41
			c0-1.369-0.453-2.506-1.358-3.411c-0.906-0.905-2.023-1.358-3.354-1.358s-2.448,0.453-3.354,1.358
			c-0.906,0.905-1.358,2.042-1.358,3.411C46.608,21.551,47.061,22.688,47.967,23.594z"/>
		<path fill="#FFFFFF" d="M62.397,24.743h5.415v2.09h-7.6v-13.3h2.185V24.743z"/>
		<path fill="#FFFFFF" d="M77.769,25.816c-0.938,0.843-2.147,1.264-3.629,1.264c-1.482,0-2.692-0.421-3.63-1.264
			c-0.938-0.842-1.405-1.973-1.405-3.392v-8.892h2.185v8.759c0,0.811,0.237,1.456,0.713,1.938c0.475,0.48,1.188,0.722,2.138,0.722
			c0.949,0,1.662-0.241,2.137-0.722c0.476-0.482,0.713-1.128,0.713-1.938v-8.759h2.185v8.892
			C79.174,23.844,78.705,24.975,77.769,25.816z"/>
		<path fill="#FFFFFF" d="M87.972,27.08c-2.002,0-3.661-0.662-4.979-1.985s-1.976-2.961-1.976-4.911
			c0-1.951,0.658-3.588,1.976-4.912c1.317-1.323,2.977-1.985,4.979-1.985c1.203,0,2.314,0.285,3.334,0.855
			c1.02,0.57,1.814,1.343,2.385,2.318l-1.899,1.102c-0.355-0.658-0.871-1.181-1.549-1.566c-0.678-0.387-1.435-0.58-2.271-0.58
			c-1.419,0-2.568,0.449-3.448,1.35c-0.881,0.898-1.321,2.039-1.321,3.42s0.44,2.52,1.321,3.42c0.88,0.898,2.029,1.349,3.448,1.349
			c0.836,0,1.596-0.192,2.28-0.579c0.684-0.387,1.196-0.909,1.539-1.568l1.899,1.084c-0.558,0.975-1.346,1.75-2.365,2.326
			C90.306,26.792,89.188,27.08,87.972,27.08z"/>
		<path fill="#FFFFFF" d="M95.495,13.533h2.185v13.3h-2.185V13.533z"/>
		<path fill="#FFFFFF" d="M111.464,25.076c-1.336,1.336-2.967,2.004-4.893,2.004c-1.925,0-3.556-0.668-4.892-2.004
			c-1.337-1.337-2.005-2.968-2.005-4.893c0-1.926,0.668-3.557,2.005-4.893c1.336-1.337,2.967-2.005,4.892-2.005
			c1.926,0,3.557,0.668,4.893,2.005c1.337,1.336,2.005,2.967,2.005,4.893C113.469,22.108,112.801,23.739,111.464,25.076z
			 M103.219,23.594c0.905,0.906,2.023,1.358,3.353,1.358c1.33,0,2.448-0.452,3.354-1.358c0.906-0.906,1.359-2.043,1.359-3.41
			c0-1.369-0.453-2.506-1.359-3.411c-0.905-0.905-2.023-1.358-3.354-1.358c-1.329,0-2.447,0.453-3.353,1.358
			c-0.906,0.905-1.359,2.042-1.359,3.411C101.859,21.551,102.313,22.688,103.219,23.594z"/>
		<path fill="#FFFFFF" d="M123.443,13.533h2.186v13.3h-1.71l-6.271-9.024v9.024h-2.185v-13.3h1.667l6.313,9.086V13.533z"/>
		<path fill="#FFFFFF" d="M130.474,24.743h5.891v2.09h-8.075v-13.3h7.979v2.09h-5.795v3.458h5.32v2.071h-5.32V24.743z"/>
		<path fill="#FFFFFF" d="M142.785,27.08c-1.279,0-2.365-0.291-3.259-0.874c-0.893-0.583-1.517-1.38-1.871-2.394l1.881-1.103
			c0.532,1.495,1.634,2.242,3.307,2.242c0.823,0,1.44-0.161,1.852-0.483c0.412-0.322,0.618-0.742,0.618-1.26
			c0-0.543-0.223-0.957-0.666-1.242c-0.444-0.283-1.23-0.596-2.359-0.938c-0.618-0.229-1.127-0.419-1.526-0.566
			c-0.398-0.148-0.816-0.371-1.253-0.67c-0.437-0.297-0.764-0.668-0.979-1.111c-0.216-0.443-0.323-0.962-0.323-1.558
			c0-1.179,0.418-2.112,1.254-2.803c0.836-0.69,1.844-1.035,3.021-1.035c1.063,0,1.995,0.26,2.793,0.779s1.412,1.235,1.843,2.147
			l-1.843,1.063c-0.558-1.24-1.488-1.861-2.793-1.861c-0.634,0-1.14,0.148-1.521,0.446c-0.38,0.298-0.569,0.7-0.569,1.206
			c0,0.484,0.194,0.866,0.582,1.145c0.389,0.279,1.093,0.574,2.112,0.885c0.497,0.188,0.86,0.324,1.092,0.411
			c0.23,0.087,0.563,0.212,0.994,0.374c0.433,0.163,0.755,0.334,0.969,0.514s0.442,0.404,0.688,0.674s0.418,0.578,0.519,0.924
			s0.15,0.738,0.15,1.174c0,1.203-0.434,2.156-1.301,2.859C145.328,26.729,144.191,27.08,142.785,27.08z"/>
	</g>
</g>
<g id="Layer_3">
	<g>
		<path fill="none" d="M0-1h30.333v30.333H0V-1z"/>
		<path fill="none" stroke="#0BAA0B" stroke-width="2" stroke-linecap="round" stroke-linejoin="round" d="M3.792,14.166
			c0,6.283,5.093,11.375,11.375,11.375s11.375-5.092,11.375-11.375c0-6.282-5.093-11.375-11.375-11.375S3.792,7.884,3.792,14.166"/>
		<path fill="none" stroke="#0BAA0B" stroke-width="2" stroke-linecap="round" stroke-linejoin="round" d="M18.705,10.375
			c-0.466-0.809-1.342-1.295-2.275-1.264h-2.527c-1.396,0-2.528,1.132-2.528,2.528c0,1.396,1.132,2.527,2.528,2.527h2.527
			c1.396,0,2.528,1.132,2.528,2.528c0,1.396-1.132,2.527-2.528,2.527h-2.527c-0.933,0.032-1.809-0.454-2.275-1.264"/>
		<path fill="none" stroke="#0BAA0B" stroke-width="2" stroke-linecap="round" stroke-linejoin="round" d="M15.167,7.847v12.639"/>
	</g>
</g>
</svg>
